; NON-PLATED HOLES START AT T1
; THROUGH (PLATED) HOLES START AT T100
M48
INCH
T1C0.275590
T2C0.236220
T3C0.130000
T100C0.038000
T101C0.039370
T102C0.040000
T103C0.035000
T104C0.036000
T105C0.027559
T106C0.025000
%
T1
X028557Y028983
X003557Y028983
X028557Y003983
X003557Y003983
T2
X015946Y020983
T3
X023657Y017983
T100
X019557Y020983
X022557Y020983
X003557Y013983
X003558Y020076
X022557Y013983
X024557Y029983
X023557Y029983
X003558Y018076
X003557Y015983
X021557Y029983
X020557Y029983
X024557Y020983
X024557Y013983
X023557Y020983
X023557Y013983
X021557Y020983
X021557Y013983
X020557Y020983
X020557Y013983
X003557Y014983
X003558Y021076
X019557Y029983
X022557Y029983
X003558Y019076
X025557Y013983
X003557Y016983
T101
X010856Y003014
X024557Y006983
X025557Y006983
X009557Y004983
X006557Y007983
X020557Y006983
X002557Y007983
X021557Y006983
X002557Y011983
X022557Y006983
X023557Y006983
X008376Y003014
T102
X012557Y028983
X029557Y018983
X007557Y028983
X010557Y028983
X029557Y016983
X008557Y028983
X009557Y028983
X029557Y017983
X011557Y028983
T103
X025557Y008983
X023557Y008983
X014557Y009983
X014557Y010983
X018557Y023983
X019557Y023983
X016557Y028983
X014557Y007983
X030557Y022983
X021557Y023983
X018557Y026983
X024557Y023983
X022557Y023983
X020557Y023983
X019557Y026983
X025557Y023983
X023557Y023983
X021557Y026983
X019557Y011983
X016557Y029983
X024557Y026983
X022557Y026983
X020557Y026983
X030557Y023983
X025557Y026983
X023557Y026983
X019557Y008983
X021557Y011983
X026557Y011983
X024557Y011983
X022557Y011983
X020557Y011983
X014557Y006983
X025557Y011983
X023557Y011983
X021557Y008983
X026557Y008983
X024557Y008983
X022557Y008983
X020557Y008983
T104
X008553Y011026
X012557Y017983
X006557Y021983
X006557Y013983
X012557Y010983
X012557Y023983
X006557Y018983
X012557Y015983
X010555Y010026
X006557Y011983
X006557Y024983
X012557Y021983
X009554Y010026
X006557Y016983
X012557Y013983
X012557Y018983
X006557Y022983
X006557Y014983
X012557Y011983
X012557Y024983
X006557Y019983
X008553Y010026
X012557Y016983
X010555Y011026
X006557Y020983
X006557Y012983
X012557Y022983
X009554Y011026
X006557Y017983
X012557Y014983
X012557Y019983
X006557Y010983
X006557Y023983
X012557Y020983
X006557Y015983
X012557Y012983
T105
X028557Y023983
X017557Y005983
X014557Y027983
X017557Y006983
X014557Y028983
X017557Y010983
X017557Y011983
X028557Y022983
T106
X005557Y020621
X005557Y021409
X005557Y022195
X005557Y022983
T00
M30
