G04 MADE WITH FRITZING*
G04 WWW.FRITZING.ORG*
G04 DOUBLE SIDED*
G04 HOLES PLATED*
G04 CONTOUR ON CENTER OF CONTOUR VECTOR*
%ASAXBY*%
%FSLAX23Y23*%
%MOIN*%
%OFA0B0*%
%SFA1.0B1.0*%
%ADD10C,0.088740*%
%ADD11C,0.285590*%
%ADD12C,0.246220*%
%ADD13C,0.088000*%
%ADD14C,0.075000*%
%ADD15C,0.085000*%
%ADD16C,0.089370*%
%ADD17C,0.070000*%
%ADD18C,0.140000*%
%ADD19C,0.080000*%
%ADD20C,0.084000*%
%ADD21R,0.085000X0.085000*%
%ADD22R,0.079958X0.080000*%
%ADD23C,0.030000*%
%ADD24R,0.001000X0.001000*%
%LNMASK0*%
G90*
G70*
G54D10*
X838Y301D03*
X1086Y301D03*
X956Y498D03*
G54D11*
X356Y2898D03*
G54D12*
X1595Y2098D03*
G54D11*
X2856Y2898D03*
X2856Y398D03*
X356Y398D03*
G54D13*
X356Y1398D03*
X356Y1498D03*
X356Y1598D03*
X356Y1698D03*
X356Y1398D03*
X356Y1498D03*
X356Y1598D03*
X356Y1698D03*
X356Y2108D03*
X356Y2008D03*
X356Y1908D03*
X356Y1808D03*
X256Y798D03*
X656Y798D03*
X256Y1198D03*
X256Y798D03*
G54D14*
X1756Y1198D03*
X1756Y1098D03*
X1456Y2798D03*
X1456Y2898D03*
X1756Y698D03*
X1756Y598D03*
X2856Y2298D03*
X2856Y2398D03*
G54D15*
X1656Y2998D03*
X1656Y2898D03*
X3056Y2298D03*
X3056Y2398D03*
X1456Y998D03*
X1456Y1098D03*
X1456Y798D03*
X1456Y698D03*
G54D16*
X2556Y698D03*
X2456Y698D03*
X2356Y698D03*
X2256Y698D03*
X2156Y698D03*
X2056Y698D03*
G54D13*
X2056Y1398D03*
X2156Y1398D03*
X2256Y1398D03*
X2356Y1398D03*
X2456Y1398D03*
X2556Y1398D03*
X2456Y2098D03*
X2356Y2098D03*
X2256Y2098D03*
X2156Y2098D03*
X2056Y2098D03*
X1956Y2098D03*
X1956Y2998D03*
X2056Y2998D03*
X2156Y2998D03*
X2256Y2998D03*
X2356Y2998D03*
X2456Y2998D03*
G54D17*
X2956Y1698D03*
X2956Y1798D03*
X2956Y1898D03*
G54D18*
X2366Y1798D03*
G54D19*
X1256Y1098D03*
X1256Y1198D03*
X1256Y1298D03*
X1256Y1398D03*
X1256Y1498D03*
X1256Y1598D03*
X1256Y1698D03*
X1256Y1798D03*
X1256Y1898D03*
X1256Y1998D03*
X1256Y2098D03*
X1256Y2198D03*
X1256Y2298D03*
X1256Y2398D03*
X1256Y2498D03*
X656Y1098D03*
X656Y1198D03*
X656Y1298D03*
X656Y1398D03*
X656Y1498D03*
X656Y1598D03*
X656Y1698D03*
X656Y1798D03*
X656Y1898D03*
X656Y1998D03*
X656Y2098D03*
X656Y2198D03*
X656Y2298D03*
X656Y2398D03*
X656Y2498D03*
X1056Y1003D03*
X1056Y1103D03*
X955Y1003D03*
X955Y1103D03*
X855Y1003D03*
X855Y1103D03*
G54D20*
X756Y2898D03*
X856Y2898D03*
X956Y2898D03*
X1056Y2898D03*
X1156Y2898D03*
X1256Y2898D03*
G54D15*
X1956Y898D03*
X1956Y1198D03*
X2056Y898D03*
X2056Y1198D03*
X2156Y898D03*
X2156Y1198D03*
X2256Y898D03*
X2256Y1198D03*
X2356Y898D03*
X2356Y1198D03*
X2456Y898D03*
X2456Y1198D03*
X2556Y898D03*
X2556Y1198D03*
X2656Y898D03*
X2656Y1198D03*
X1856Y2398D03*
X1856Y2698D03*
X1956Y2398D03*
X1956Y2698D03*
X2056Y2398D03*
X2056Y2698D03*
X2156Y2398D03*
X2156Y2698D03*
X2256Y2398D03*
X2256Y2698D03*
X2356Y2398D03*
X2356Y2698D03*
X2456Y2398D03*
X2456Y2698D03*
X2556Y2398D03*
X2556Y2698D03*
G54D14*
X556Y2298D03*
X556Y2220D03*
X556Y2141D03*
X556Y2062D03*
G54D21*
X1656Y2998D03*
X3056Y2298D03*
X1456Y798D03*
G54D22*
X1256Y1098D03*
G54D21*
X1956Y898D03*
X1856Y2398D03*
G54D23*
G36*
X1428Y1026D02*
X1483Y1026D01*
X1483Y971D01*
X1428Y971D01*
X1428Y1026D01*
G37*
D02*
G54D24*
X2920Y1933D02*
X2990Y1933D01*
X2915Y1932D02*
X2994Y1932D01*
X2913Y1931D02*
X2997Y1931D01*
X2910Y1930D02*
X2999Y1930D01*
X2908Y1929D02*
X3001Y1929D01*
X2907Y1928D02*
X3003Y1928D01*
X2905Y1927D02*
X3005Y1927D01*
X2904Y1926D02*
X3006Y1926D01*
X2903Y1925D02*
X3007Y1925D01*
X2901Y1924D02*
X3008Y1924D01*
X2900Y1923D02*
X3009Y1923D01*
X2899Y1922D02*
X3010Y1922D01*
X2899Y1921D02*
X3011Y1921D01*
X2898Y1920D02*
X3012Y1920D01*
X2897Y1919D02*
X3013Y1919D01*
X2896Y1918D02*
X3013Y1918D01*
X2896Y1917D02*
X3014Y1917D01*
X2895Y1916D02*
X3015Y1916D01*
X2895Y1915D02*
X3015Y1915D01*
X2894Y1914D02*
X3016Y1914D01*
X2894Y1913D02*
X2950Y1913D01*
X2959Y1913D02*
X3016Y1913D01*
X2893Y1912D02*
X2948Y1912D01*
X2962Y1912D02*
X3017Y1912D01*
X2893Y1911D02*
X2946Y1911D01*
X2964Y1911D02*
X3017Y1911D01*
X2892Y1910D02*
X2945Y1910D01*
X2965Y1910D02*
X3017Y1910D01*
X2892Y1909D02*
X2944Y1909D01*
X2966Y1909D02*
X3018Y1909D01*
X2892Y1908D02*
X2943Y1908D01*
X2967Y1908D02*
X3018Y1908D01*
X2892Y1907D02*
X2942Y1907D01*
X2968Y1907D02*
X3018Y1907D01*
X2891Y1906D02*
X2941Y1906D01*
X2968Y1906D02*
X3018Y1906D01*
X2891Y1905D02*
X2941Y1905D01*
X2969Y1905D02*
X3019Y1905D01*
X2891Y1904D02*
X2940Y1904D01*
X2969Y1904D02*
X3019Y1904D01*
X2891Y1903D02*
X2940Y1903D01*
X2970Y1903D02*
X3019Y1903D01*
X2891Y1902D02*
X2940Y1902D01*
X2970Y1902D02*
X3019Y1902D01*
X2891Y1901D02*
X2940Y1901D01*
X2970Y1901D02*
X3019Y1901D01*
X2890Y1900D02*
X2939Y1900D01*
X2970Y1900D02*
X3019Y1900D01*
X2890Y1899D02*
X2939Y1899D01*
X2970Y1899D02*
X3019Y1899D01*
X2890Y1898D02*
X2939Y1898D01*
X2970Y1898D02*
X3019Y1898D01*
X2890Y1897D02*
X2939Y1897D01*
X2970Y1897D02*
X3019Y1897D01*
X2891Y1896D02*
X2940Y1896D01*
X2970Y1896D02*
X3019Y1896D01*
X2891Y1895D02*
X2940Y1895D01*
X2970Y1895D02*
X3019Y1895D01*
X2891Y1894D02*
X2940Y1894D01*
X2970Y1894D02*
X3019Y1894D01*
X2891Y1893D02*
X2940Y1893D01*
X2969Y1893D02*
X3019Y1893D01*
X2891Y1892D02*
X2941Y1892D01*
X2969Y1892D02*
X3019Y1892D01*
X2891Y1891D02*
X2941Y1891D01*
X2968Y1891D02*
X3018Y1891D01*
X2892Y1890D02*
X2942Y1890D01*
X2968Y1890D02*
X3018Y1890D01*
X2892Y1889D02*
X2943Y1889D01*
X2967Y1889D02*
X3018Y1889D01*
X2892Y1888D02*
X2944Y1888D01*
X2966Y1888D02*
X3018Y1888D01*
X2892Y1887D02*
X2945Y1887D01*
X2965Y1887D02*
X3017Y1887D01*
X2893Y1886D02*
X2946Y1886D01*
X2964Y1886D02*
X3017Y1886D01*
X2893Y1885D02*
X2948Y1885D01*
X2962Y1885D02*
X3017Y1885D01*
X2894Y1884D02*
X2951Y1884D01*
X2959Y1884D02*
X3016Y1884D01*
X2894Y1883D02*
X3016Y1883D01*
X2895Y1882D02*
X3015Y1882D01*
X2895Y1881D02*
X3015Y1881D01*
X2896Y1880D02*
X3014Y1880D01*
X2896Y1879D02*
X3013Y1879D01*
X2897Y1878D02*
X3013Y1878D01*
X2898Y1877D02*
X3012Y1877D01*
X2899Y1876D02*
X3011Y1876D01*
X2900Y1875D02*
X3010Y1875D01*
X2900Y1874D02*
X3009Y1874D01*
X2902Y1873D02*
X3008Y1873D01*
X2903Y1872D02*
X3007Y1872D01*
X2904Y1871D02*
X3006Y1871D01*
X2905Y1870D02*
X3004Y1870D01*
X2907Y1869D02*
X3003Y1869D01*
X2908Y1868D02*
X3001Y1868D01*
X2910Y1867D02*
X2999Y1867D01*
X2913Y1866D02*
X2997Y1866D01*
X2916Y1865D02*
X2994Y1865D01*
X2920Y1864D02*
X2989Y1864D01*
X2920Y1833D02*
X2990Y1833D01*
X2915Y1832D02*
X2994Y1832D01*
X2913Y1831D02*
X2997Y1831D01*
X2910Y1830D02*
X2999Y1830D01*
X2908Y1829D02*
X3001Y1829D01*
X2907Y1828D02*
X3003Y1828D01*
X2905Y1827D02*
X3005Y1827D01*
X2904Y1826D02*
X3006Y1826D01*
X2903Y1825D02*
X3007Y1825D01*
X2901Y1824D02*
X3008Y1824D01*
X2900Y1823D02*
X3009Y1823D01*
X2899Y1822D02*
X3010Y1822D01*
X2899Y1821D02*
X3011Y1821D01*
X2898Y1820D02*
X3012Y1820D01*
X2897Y1819D02*
X3013Y1819D01*
X2896Y1818D02*
X3013Y1818D01*
X2896Y1817D02*
X3014Y1817D01*
X2895Y1816D02*
X3015Y1816D01*
X2895Y1815D02*
X3015Y1815D01*
X2894Y1814D02*
X3016Y1814D01*
X2894Y1813D02*
X2950Y1813D01*
X2959Y1813D02*
X3016Y1813D01*
X2893Y1812D02*
X2948Y1812D01*
X2962Y1812D02*
X3017Y1812D01*
X2893Y1811D02*
X2946Y1811D01*
X2964Y1811D02*
X3017Y1811D01*
X2892Y1810D02*
X2945Y1810D01*
X2965Y1810D02*
X3017Y1810D01*
X2892Y1809D02*
X2944Y1809D01*
X2966Y1809D02*
X3018Y1809D01*
X2892Y1808D02*
X2943Y1808D01*
X2967Y1808D02*
X3018Y1808D01*
X2892Y1807D02*
X2942Y1807D01*
X2968Y1807D02*
X3018Y1807D01*
X2891Y1806D02*
X2941Y1806D01*
X2968Y1806D02*
X3018Y1806D01*
X2891Y1805D02*
X2941Y1805D01*
X2969Y1805D02*
X3019Y1805D01*
X2891Y1804D02*
X2940Y1804D01*
X2969Y1804D02*
X3019Y1804D01*
X2891Y1803D02*
X2940Y1803D01*
X2970Y1803D02*
X3019Y1803D01*
X2891Y1802D02*
X2940Y1802D01*
X2970Y1802D02*
X3019Y1802D01*
X2891Y1801D02*
X2940Y1801D01*
X2970Y1801D02*
X3019Y1801D01*
X2890Y1800D02*
X2939Y1800D01*
X2970Y1800D02*
X3019Y1800D01*
X2890Y1799D02*
X2939Y1799D01*
X2970Y1799D02*
X3019Y1799D01*
X2890Y1798D02*
X2939Y1798D01*
X2970Y1798D02*
X3019Y1798D01*
X2890Y1797D02*
X2940Y1797D01*
X2970Y1797D02*
X3019Y1797D01*
X2891Y1796D02*
X2940Y1796D01*
X2970Y1796D02*
X3019Y1796D01*
X2891Y1795D02*
X2940Y1795D01*
X2970Y1795D02*
X3019Y1795D01*
X2891Y1794D02*
X2940Y1794D01*
X2970Y1794D02*
X3019Y1794D01*
X2891Y1793D02*
X2940Y1793D01*
X2969Y1793D02*
X3019Y1793D01*
X2891Y1792D02*
X2941Y1792D01*
X2969Y1792D02*
X3019Y1792D01*
X2891Y1791D02*
X2941Y1791D01*
X2968Y1791D02*
X3018Y1791D01*
X2892Y1790D02*
X2942Y1790D01*
X2968Y1790D02*
X3018Y1790D01*
X2892Y1789D02*
X2943Y1789D01*
X2967Y1789D02*
X3018Y1789D01*
X2892Y1788D02*
X2944Y1788D01*
X2966Y1788D02*
X3018Y1788D01*
X2892Y1787D02*
X2945Y1787D01*
X2965Y1787D02*
X3017Y1787D01*
X2893Y1786D02*
X2946Y1786D01*
X2964Y1786D02*
X3017Y1786D01*
X2893Y1785D02*
X2948Y1785D01*
X2962Y1785D02*
X3017Y1785D01*
X2894Y1784D02*
X2951Y1784D01*
X2959Y1784D02*
X3016Y1784D01*
X2894Y1783D02*
X3016Y1783D01*
X2895Y1782D02*
X3015Y1782D01*
X2895Y1781D02*
X3015Y1781D01*
X2896Y1780D02*
X3014Y1780D01*
X2896Y1779D02*
X3013Y1779D01*
X2897Y1778D02*
X3013Y1778D01*
X2898Y1777D02*
X3012Y1777D01*
X2899Y1776D02*
X3011Y1776D01*
X2900Y1775D02*
X3010Y1775D01*
X2900Y1774D02*
X3009Y1774D01*
X2902Y1773D02*
X3008Y1773D01*
X2903Y1772D02*
X3007Y1772D01*
X2904Y1771D02*
X3006Y1771D01*
X2905Y1770D02*
X3004Y1770D01*
X2907Y1769D02*
X3003Y1769D01*
X2908Y1768D02*
X3001Y1768D01*
X2911Y1767D02*
X2999Y1767D01*
X2913Y1766D02*
X2997Y1766D01*
X2916Y1765D02*
X2994Y1765D01*
X2920Y1764D02*
X2989Y1764D01*
X2920Y1733D02*
X2990Y1733D01*
X2915Y1732D02*
X2994Y1732D01*
X2913Y1731D02*
X2997Y1731D01*
X2910Y1730D02*
X2999Y1730D01*
X2908Y1729D02*
X3001Y1729D01*
X2907Y1728D02*
X3003Y1728D01*
X2905Y1727D02*
X3005Y1727D01*
X2904Y1726D02*
X3006Y1726D01*
X2902Y1725D02*
X3007Y1725D01*
X2901Y1724D02*
X3008Y1724D01*
X2900Y1723D02*
X3009Y1723D01*
X2899Y1722D02*
X3010Y1722D01*
X2899Y1721D02*
X3011Y1721D01*
X2898Y1720D02*
X3012Y1720D01*
X2897Y1719D02*
X3013Y1719D01*
X2896Y1718D02*
X3013Y1718D01*
X2896Y1717D02*
X3014Y1717D01*
X2895Y1716D02*
X3015Y1716D01*
X2895Y1715D02*
X3015Y1715D01*
X2894Y1714D02*
X3016Y1714D01*
X2894Y1713D02*
X2950Y1713D01*
X2959Y1713D02*
X3016Y1713D01*
X2893Y1712D02*
X2948Y1712D01*
X2962Y1712D02*
X3017Y1712D01*
X2893Y1711D02*
X2946Y1711D01*
X2964Y1711D02*
X3017Y1711D01*
X2892Y1710D02*
X2945Y1710D01*
X2965Y1710D02*
X3017Y1710D01*
X2892Y1709D02*
X2944Y1709D01*
X2966Y1709D02*
X3018Y1709D01*
X2892Y1708D02*
X2943Y1708D01*
X2967Y1708D02*
X3018Y1708D01*
X2892Y1707D02*
X2942Y1707D01*
X2968Y1707D02*
X3018Y1707D01*
X2891Y1706D02*
X2941Y1706D01*
X2968Y1706D02*
X3018Y1706D01*
X2891Y1705D02*
X2941Y1705D01*
X2969Y1705D02*
X3019Y1705D01*
X2891Y1704D02*
X2940Y1704D01*
X2969Y1704D02*
X3019Y1704D01*
X2891Y1703D02*
X2940Y1703D01*
X2970Y1703D02*
X3019Y1703D01*
X2891Y1702D02*
X2940Y1702D01*
X2970Y1702D02*
X3019Y1702D01*
X2891Y1701D02*
X2940Y1701D01*
X2970Y1701D02*
X3019Y1701D01*
X2890Y1700D02*
X2939Y1700D01*
X2970Y1700D02*
X3019Y1700D01*
X2890Y1699D02*
X2939Y1699D01*
X2970Y1699D02*
X3019Y1699D01*
X2890Y1698D02*
X2939Y1698D01*
X2970Y1698D02*
X3019Y1698D01*
X2890Y1697D02*
X2940Y1697D01*
X2970Y1697D02*
X3019Y1697D01*
X2891Y1696D02*
X2940Y1696D01*
X2970Y1696D02*
X3019Y1696D01*
X2891Y1695D02*
X2940Y1695D01*
X2970Y1695D02*
X3019Y1695D01*
X2891Y1694D02*
X2940Y1694D01*
X2970Y1694D02*
X3019Y1694D01*
X2891Y1693D02*
X2940Y1693D01*
X2969Y1693D02*
X3019Y1693D01*
X2891Y1692D02*
X2941Y1692D01*
X2969Y1692D02*
X3019Y1692D01*
X2891Y1691D02*
X2941Y1691D01*
X2968Y1691D02*
X3018Y1691D01*
X2892Y1690D02*
X2942Y1690D01*
X2968Y1690D02*
X3018Y1690D01*
X2892Y1689D02*
X2943Y1689D01*
X2967Y1689D02*
X3018Y1689D01*
X2892Y1688D02*
X2944Y1688D01*
X2966Y1688D02*
X3018Y1688D01*
X2892Y1687D02*
X2945Y1687D01*
X2965Y1687D02*
X3017Y1687D01*
X2893Y1686D02*
X2946Y1686D01*
X2964Y1686D02*
X3017Y1686D01*
X2893Y1685D02*
X2948Y1685D01*
X2962Y1685D02*
X3017Y1685D01*
X2894Y1684D02*
X2951Y1684D01*
X2959Y1684D02*
X3016Y1684D01*
X2894Y1683D02*
X3016Y1683D01*
X2895Y1682D02*
X3015Y1682D01*
X2895Y1681D02*
X3015Y1681D01*
X2896Y1680D02*
X3014Y1680D01*
X2896Y1679D02*
X3013Y1679D01*
X2897Y1678D02*
X3013Y1678D01*
X2898Y1677D02*
X3012Y1677D01*
X2899Y1676D02*
X3011Y1676D01*
X2900Y1675D02*
X3010Y1675D01*
X2900Y1674D02*
X3009Y1674D01*
X2902Y1673D02*
X3008Y1673D01*
X2903Y1672D02*
X3007Y1672D01*
X2904Y1671D02*
X3006Y1671D01*
X2905Y1670D02*
X3004Y1670D01*
X2907Y1669D02*
X3003Y1669D01*
X2909Y1668D02*
X3001Y1668D01*
X2911Y1667D02*
X2999Y1667D01*
X2913Y1666D02*
X2997Y1666D01*
X2916Y1665D02*
X2994Y1665D01*
X2920Y1664D02*
X2989Y1664D01*
X914Y543D02*
X996Y543D01*
X907Y542D02*
X1003Y542D01*
X903Y541D02*
X1007Y541D01*
X900Y540D02*
X1010Y540D01*
X898Y539D02*
X1012Y539D01*
X896Y538D02*
X1014Y538D01*
X894Y537D02*
X1016Y537D01*
X892Y536D02*
X1018Y536D01*
X891Y535D02*
X1019Y535D01*
X889Y534D02*
X1021Y534D01*
X888Y533D02*
X1022Y533D01*
X887Y532D02*
X1023Y532D01*
X886Y531D02*
X1024Y531D01*
X885Y530D02*
X1025Y530D01*
X884Y529D02*
X1026Y529D01*
X883Y528D02*
X1027Y528D01*
X882Y527D02*
X1028Y527D01*
X881Y526D02*
X1029Y526D01*
X881Y525D02*
X1030Y525D01*
X880Y524D02*
X1030Y524D01*
X879Y523D02*
X1031Y523D01*
X879Y522D02*
X1032Y522D01*
X878Y521D02*
X1032Y521D01*
X877Y520D02*
X1033Y520D01*
X877Y519D02*
X1033Y519D01*
X876Y518D02*
X1034Y518D01*
X876Y517D02*
X1034Y517D01*
X876Y516D02*
X1035Y516D01*
X875Y515D02*
X1035Y515D01*
X875Y514D02*
X1036Y514D01*
X874Y513D02*
X951Y513D01*
X959Y513D02*
X1036Y513D01*
X874Y512D02*
X948Y512D01*
X962Y512D02*
X1036Y512D01*
X874Y511D02*
X947Y511D01*
X964Y511D02*
X1037Y511D01*
X873Y510D02*
X945Y510D01*
X965Y510D02*
X1037Y510D01*
X873Y509D02*
X944Y509D01*
X966Y509D02*
X1037Y509D01*
X873Y508D02*
X943Y508D01*
X967Y508D02*
X1037Y508D01*
X873Y507D02*
X942Y507D01*
X968Y507D02*
X1038Y507D01*
X873Y506D02*
X942Y506D01*
X968Y506D02*
X1038Y506D01*
X872Y505D02*
X941Y505D01*
X969Y505D02*
X1038Y505D01*
X872Y504D02*
X941Y504D01*
X969Y504D02*
X1038Y504D01*
X872Y503D02*
X941Y503D01*
X970Y503D02*
X1038Y503D01*
X872Y502D02*
X940Y502D01*
X970Y502D02*
X1038Y502D01*
X872Y501D02*
X940Y501D01*
X970Y501D02*
X1038Y501D01*
X872Y500D02*
X940Y500D01*
X970Y500D02*
X1038Y500D01*
X872Y499D02*
X940Y499D01*
X970Y499D02*
X1038Y499D01*
X872Y498D02*
X940Y498D01*
X970Y498D02*
X1038Y498D01*
X872Y497D02*
X940Y497D01*
X970Y497D02*
X1038Y497D01*
X872Y496D02*
X940Y496D01*
X970Y496D02*
X1038Y496D01*
X872Y495D02*
X940Y495D01*
X970Y495D02*
X1038Y495D01*
X872Y494D02*
X941Y494D01*
X970Y494D02*
X1038Y494D01*
X872Y493D02*
X941Y493D01*
X969Y493D02*
X1038Y493D01*
X873Y492D02*
X942Y492D01*
X969Y492D02*
X1038Y492D01*
X873Y491D02*
X942Y491D01*
X968Y491D02*
X1038Y491D01*
X873Y490D02*
X943Y490D01*
X967Y490D02*
X1037Y490D01*
X873Y489D02*
X944Y489D01*
X967Y489D02*
X1037Y489D01*
X873Y488D02*
X945Y488D01*
X966Y488D02*
X1037Y488D01*
X874Y487D02*
X946Y487D01*
X964Y487D02*
X1037Y487D01*
X874Y486D02*
X947Y486D01*
X963Y486D02*
X1036Y486D01*
X874Y485D02*
X949Y485D01*
X961Y485D02*
X1036Y485D01*
X875Y484D02*
X1036Y484D01*
X875Y483D02*
X1035Y483D01*
X875Y482D02*
X1035Y482D01*
X876Y481D02*
X1035Y481D01*
X876Y480D02*
X1034Y480D01*
X877Y479D02*
X1034Y479D01*
X877Y478D02*
X1033Y478D01*
X878Y477D02*
X1033Y477D01*
X878Y476D02*
X1032Y476D01*
X879Y475D02*
X1031Y475D01*
X880Y474D02*
X1031Y474D01*
X880Y473D02*
X1030Y473D01*
X881Y472D02*
X1029Y472D01*
X882Y471D02*
X1029Y471D01*
X883Y470D02*
X1028Y470D01*
X883Y469D02*
X1027Y469D01*
X884Y468D02*
X1026Y468D01*
X885Y467D02*
X1025Y467D01*
X886Y466D02*
X1024Y466D01*
X888Y465D02*
X1023Y465D01*
X889Y464D02*
X1021Y464D01*
X890Y463D02*
X1020Y463D01*
X891Y462D02*
X1019Y462D01*
X893Y461D02*
X1017Y461D01*
X895Y460D02*
X1015Y460D01*
X897Y459D02*
X1013Y459D01*
X899Y458D02*
X1011Y458D01*
X902Y457D02*
X1009Y457D01*
X905Y456D02*
X1006Y456D01*
X909Y455D02*
X1001Y455D01*
X831Y385D02*
X844Y385D01*
X1079Y385D02*
X1092Y385D01*
X826Y384D02*
X848Y384D01*
X1074Y384D02*
X1096Y384D01*
X823Y383D02*
X851Y383D01*
X1071Y383D02*
X1099Y383D01*
X820Y382D02*
X854Y382D01*
X1068Y382D02*
X1102Y382D01*
X818Y381D02*
X856Y381D01*
X1066Y381D02*
X1104Y381D01*
X816Y380D02*
X858Y380D01*
X1064Y380D02*
X1106Y380D01*
X814Y379D02*
X860Y379D01*
X1062Y379D02*
X1108Y379D01*
X813Y378D02*
X861Y378D01*
X1061Y378D02*
X1109Y378D01*
X811Y377D02*
X863Y377D01*
X1059Y377D02*
X1111Y377D01*
X810Y376D02*
X864Y376D01*
X1058Y376D02*
X1112Y376D01*
X809Y375D02*
X865Y375D01*
X1057Y375D02*
X1113Y375D01*
X808Y374D02*
X866Y374D01*
X1056Y374D02*
X1114Y374D01*
X807Y373D02*
X868Y373D01*
X1055Y373D02*
X1116Y373D01*
X806Y372D02*
X868Y372D01*
X1054Y372D02*
X1116Y372D01*
X805Y371D02*
X869Y371D01*
X1053Y371D02*
X1117Y371D01*
X804Y370D02*
X870Y370D01*
X1052Y370D02*
X1118Y370D01*
X803Y369D02*
X871Y369D01*
X1051Y369D02*
X1119Y369D01*
X802Y368D02*
X872Y368D01*
X1050Y368D02*
X1120Y368D01*
X801Y367D02*
X873Y367D01*
X1049Y367D02*
X1121Y367D01*
X801Y366D02*
X873Y366D01*
X1049Y366D02*
X1121Y366D01*
X800Y365D02*
X874Y365D01*
X1048Y365D02*
X1122Y365D01*
X800Y364D02*
X875Y364D01*
X1048Y364D02*
X1123Y364D01*
X799Y363D02*
X875Y363D01*
X1047Y363D02*
X1123Y363D01*
X798Y362D02*
X876Y362D01*
X1046Y362D02*
X1124Y362D01*
X798Y361D02*
X876Y361D01*
X1046Y361D02*
X1124Y361D01*
X797Y360D02*
X877Y360D01*
X1045Y360D02*
X1125Y360D01*
X797Y359D02*
X877Y359D01*
X1045Y359D02*
X1125Y359D01*
X797Y358D02*
X878Y358D01*
X1045Y358D02*
X1126Y358D01*
X796Y357D02*
X878Y357D01*
X1044Y357D02*
X1126Y357D01*
X796Y356D02*
X878Y356D01*
X1044Y356D02*
X1126Y356D01*
X795Y355D02*
X879Y355D01*
X1043Y355D02*
X1127Y355D01*
X795Y354D02*
X879Y354D01*
X1043Y354D02*
X1127Y354D01*
X795Y353D02*
X879Y353D01*
X1043Y353D02*
X1127Y353D01*
X795Y352D02*
X879Y352D01*
X1043Y352D02*
X1127Y352D01*
X794Y351D02*
X880Y351D01*
X1042Y351D02*
X1128Y351D01*
X794Y350D02*
X880Y350D01*
X1042Y350D02*
X1128Y350D01*
X794Y349D02*
X880Y349D01*
X1042Y349D02*
X1128Y349D01*
X794Y348D02*
X880Y348D01*
X1042Y348D02*
X1128Y348D01*
X794Y347D02*
X880Y347D01*
X1042Y347D02*
X1128Y347D01*
X793Y346D02*
X881Y346D01*
X1041Y346D02*
X1129Y346D01*
X793Y345D02*
X881Y345D01*
X1041Y345D02*
X1129Y345D01*
X793Y344D02*
X881Y344D01*
X1041Y344D02*
X1129Y344D01*
X793Y343D02*
X881Y343D01*
X1041Y343D02*
X1129Y343D01*
X793Y342D02*
X881Y342D01*
X1041Y342D02*
X1129Y342D01*
X793Y341D02*
X881Y341D01*
X1041Y341D02*
X1129Y341D01*
X793Y340D02*
X881Y340D01*
X1041Y340D02*
X1129Y340D01*
X793Y339D02*
X881Y339D01*
X1041Y339D02*
X1129Y339D01*
X793Y338D02*
X881Y338D01*
X1041Y338D02*
X1129Y338D01*
X793Y337D02*
X881Y337D01*
X1041Y337D02*
X1129Y337D01*
X793Y336D02*
X881Y336D01*
X1041Y336D02*
X1129Y336D01*
X793Y335D02*
X881Y335D01*
X1041Y335D02*
X1129Y335D01*
X793Y334D02*
X881Y334D01*
X1041Y334D02*
X1129Y334D01*
X793Y333D02*
X881Y333D01*
X1041Y333D02*
X1129Y333D01*
X793Y332D02*
X881Y332D01*
X1041Y332D02*
X1129Y332D01*
X793Y331D02*
X881Y331D01*
X1041Y331D02*
X1129Y331D01*
X793Y330D02*
X881Y330D01*
X1041Y330D02*
X1129Y330D01*
X793Y329D02*
X881Y329D01*
X1041Y329D02*
X1129Y329D01*
X793Y328D02*
X881Y328D01*
X1041Y328D02*
X1129Y328D01*
X793Y327D02*
X881Y327D01*
X1041Y327D02*
X1129Y327D01*
X793Y326D02*
X881Y326D01*
X1041Y326D02*
X1129Y326D01*
X793Y325D02*
X881Y325D01*
X1041Y325D02*
X1129Y325D01*
X793Y324D02*
X881Y324D01*
X1041Y324D02*
X1129Y324D01*
X793Y323D02*
X881Y323D01*
X1041Y323D02*
X1129Y323D01*
X793Y322D02*
X881Y322D01*
X1041Y322D02*
X1129Y322D01*
X793Y321D02*
X881Y321D01*
X1041Y321D02*
X1129Y321D01*
X793Y320D02*
X881Y320D01*
X1041Y320D02*
X1129Y320D01*
X793Y319D02*
X881Y319D01*
X1041Y319D02*
X1129Y319D01*
X793Y318D02*
X881Y318D01*
X1041Y318D02*
X1129Y318D01*
X793Y317D02*
X881Y317D01*
X1041Y317D02*
X1129Y317D01*
X793Y316D02*
X832Y316D01*
X842Y316D02*
X881Y316D01*
X1041Y316D02*
X1080Y316D01*
X1090Y316D02*
X1129Y316D01*
X793Y315D02*
X830Y315D01*
X844Y315D02*
X881Y315D01*
X1041Y315D02*
X1078Y315D01*
X1092Y315D02*
X1129Y315D01*
X793Y314D02*
X828Y314D01*
X846Y314D02*
X881Y314D01*
X1041Y314D02*
X1076Y314D01*
X1094Y314D02*
X1129Y314D01*
X793Y313D02*
X827Y313D01*
X847Y313D02*
X881Y313D01*
X1041Y313D02*
X1075Y313D01*
X1095Y313D02*
X1129Y313D01*
X793Y312D02*
X826Y312D01*
X848Y312D02*
X881Y312D01*
X1041Y312D02*
X1074Y312D01*
X1096Y312D02*
X1129Y312D01*
X793Y311D02*
X825Y311D01*
X849Y311D02*
X881Y311D01*
X1041Y311D02*
X1073Y311D01*
X1097Y311D02*
X1129Y311D01*
X793Y310D02*
X824Y310D01*
X850Y310D02*
X881Y310D01*
X1041Y310D02*
X1072Y310D01*
X1098Y310D02*
X1129Y310D01*
X793Y309D02*
X824Y309D01*
X850Y309D02*
X881Y309D01*
X1041Y309D02*
X1072Y309D01*
X1098Y309D02*
X1129Y309D01*
X793Y308D02*
X823Y308D01*
X851Y308D02*
X881Y308D01*
X1041Y308D02*
X1071Y308D01*
X1099Y308D02*
X1129Y308D01*
X793Y307D02*
X823Y307D01*
X851Y307D02*
X881Y307D01*
X1041Y307D02*
X1071Y307D01*
X1099Y307D02*
X1129Y307D01*
X793Y306D02*
X822Y306D01*
X852Y306D02*
X881Y306D01*
X1041Y306D02*
X1070Y306D01*
X1100Y306D02*
X1129Y306D01*
X793Y305D02*
X822Y305D01*
X852Y305D02*
X881Y305D01*
X1041Y305D02*
X1070Y305D01*
X1100Y305D02*
X1129Y305D01*
X793Y304D02*
X822Y304D01*
X852Y304D02*
X881Y304D01*
X1041Y304D02*
X1070Y304D01*
X1100Y304D02*
X1129Y304D01*
X793Y303D02*
X822Y303D01*
X852Y303D02*
X881Y303D01*
X1041Y303D02*
X1070Y303D01*
X1100Y303D02*
X1129Y303D01*
X793Y302D02*
X822Y302D01*
X852Y302D02*
X881Y302D01*
X1041Y302D02*
X1070Y302D01*
X1100Y302D02*
X1129Y302D01*
X793Y301D02*
X822Y301D01*
X852Y301D02*
X881Y301D01*
X1041Y301D02*
X1070Y301D01*
X1100Y301D02*
X1129Y301D01*
X793Y300D02*
X822Y300D01*
X852Y300D02*
X881Y300D01*
X1041Y300D02*
X1070Y300D01*
X1100Y300D02*
X1129Y300D01*
X793Y299D02*
X822Y299D01*
X852Y299D02*
X881Y299D01*
X1041Y299D02*
X1070Y299D01*
X1100Y299D02*
X1129Y299D01*
X793Y298D02*
X822Y298D01*
X852Y298D02*
X881Y298D01*
X1041Y298D02*
X1070Y298D01*
X1100Y298D02*
X1129Y298D01*
X793Y297D02*
X823Y297D01*
X851Y297D02*
X881Y297D01*
X1041Y297D02*
X1071Y297D01*
X1099Y297D02*
X1129Y297D01*
X793Y296D02*
X823Y296D01*
X851Y296D02*
X881Y296D01*
X1041Y296D02*
X1071Y296D01*
X1099Y296D02*
X1129Y296D01*
X793Y295D02*
X824Y295D01*
X851Y295D02*
X881Y295D01*
X1041Y295D02*
X1072Y295D01*
X1098Y295D02*
X1129Y295D01*
X793Y294D02*
X824Y294D01*
X850Y294D02*
X881Y294D01*
X1041Y294D02*
X1072Y294D01*
X1098Y294D02*
X1129Y294D01*
X793Y293D02*
X825Y293D01*
X849Y293D02*
X881Y293D01*
X1041Y293D02*
X1073Y293D01*
X1097Y293D02*
X1129Y293D01*
X793Y292D02*
X826Y292D01*
X848Y292D02*
X881Y292D01*
X1041Y292D02*
X1074Y292D01*
X1096Y292D02*
X1129Y292D01*
X793Y291D02*
X827Y291D01*
X847Y291D02*
X881Y291D01*
X1041Y291D02*
X1075Y291D01*
X1095Y291D02*
X1129Y291D01*
X793Y290D02*
X828Y290D01*
X846Y290D02*
X881Y290D01*
X1041Y290D02*
X1076Y290D01*
X1094Y290D02*
X1129Y290D01*
X793Y289D02*
X830Y289D01*
X845Y289D02*
X881Y289D01*
X1041Y289D02*
X1078Y289D01*
X1093Y289D02*
X1129Y289D01*
X793Y288D02*
X832Y288D01*
X842Y288D02*
X881Y288D01*
X1041Y288D02*
X1080Y288D01*
X1090Y288D02*
X1129Y288D01*
X793Y287D02*
X881Y287D01*
X1041Y287D02*
X1129Y287D01*
X793Y286D02*
X881Y286D01*
X1041Y286D02*
X1129Y286D01*
X793Y285D02*
X881Y285D01*
X1041Y285D02*
X1129Y285D01*
X793Y284D02*
X881Y284D01*
X1041Y284D02*
X1129Y284D01*
X793Y283D02*
X881Y283D01*
X1041Y283D02*
X1129Y283D01*
X793Y282D02*
X881Y282D01*
X1041Y282D02*
X1129Y282D01*
X793Y281D02*
X881Y281D01*
X1041Y281D02*
X1129Y281D01*
X793Y280D02*
X881Y280D01*
X1041Y280D02*
X1129Y280D01*
X793Y279D02*
X881Y279D01*
X1041Y279D02*
X1129Y279D01*
X793Y278D02*
X881Y278D01*
X1041Y278D02*
X1129Y278D01*
X793Y277D02*
X881Y277D01*
X1041Y277D02*
X1129Y277D01*
X793Y276D02*
X881Y276D01*
X1041Y276D02*
X1129Y276D01*
X793Y275D02*
X881Y275D01*
X1041Y275D02*
X1129Y275D01*
X793Y274D02*
X881Y274D01*
X1041Y274D02*
X1129Y274D01*
X793Y273D02*
X881Y273D01*
X1041Y273D02*
X1129Y273D01*
X793Y272D02*
X881Y272D01*
X1041Y272D02*
X1129Y272D01*
X793Y271D02*
X881Y271D01*
X1041Y271D02*
X1129Y271D01*
X793Y270D02*
X881Y270D01*
X1041Y270D02*
X1129Y270D01*
X793Y269D02*
X881Y269D01*
X1041Y269D02*
X1129Y269D01*
X793Y268D02*
X881Y268D01*
X1041Y268D02*
X1129Y268D01*
X793Y267D02*
X881Y267D01*
X1041Y267D02*
X1129Y267D01*
X793Y266D02*
X881Y266D01*
X1041Y266D02*
X1129Y266D01*
X793Y265D02*
X881Y265D01*
X1041Y265D02*
X1129Y265D01*
X793Y264D02*
X881Y264D01*
X1041Y264D02*
X1129Y264D01*
X793Y263D02*
X881Y263D01*
X1041Y263D02*
X1129Y263D01*
X793Y262D02*
X881Y262D01*
X1041Y262D02*
X1129Y262D01*
X793Y261D02*
X881Y261D01*
X1041Y261D02*
X1129Y261D01*
X793Y260D02*
X881Y260D01*
X1041Y260D02*
X1129Y260D01*
X793Y259D02*
X881Y259D01*
X1041Y259D02*
X1129Y259D01*
X793Y258D02*
X881Y258D01*
X1041Y258D02*
X1129Y258D01*
X794Y257D02*
X880Y257D01*
X1042Y257D02*
X1128Y257D01*
X794Y256D02*
X880Y256D01*
X1042Y256D02*
X1128Y256D01*
X794Y255D02*
X880Y255D01*
X1042Y255D02*
X1128Y255D01*
X794Y254D02*
X880Y254D01*
X1042Y254D02*
X1128Y254D01*
X794Y253D02*
X880Y253D01*
X1042Y253D02*
X1128Y253D01*
X795Y252D02*
X880Y252D01*
X1043Y252D02*
X1128Y252D01*
X795Y251D02*
X879Y251D01*
X1043Y251D02*
X1127Y251D01*
X795Y250D02*
X879Y250D01*
X1043Y250D02*
X1127Y250D01*
X795Y249D02*
X879Y249D01*
X1043Y249D02*
X1127Y249D01*
X796Y248D02*
X878Y248D01*
X1044Y248D02*
X1126Y248D01*
X796Y247D02*
X878Y247D01*
X1044Y247D02*
X1126Y247D01*
X796Y246D02*
X878Y246D01*
X1044Y246D02*
X1126Y246D01*
X797Y245D02*
X877Y245D01*
X1045Y245D02*
X1125Y245D01*
X797Y244D02*
X877Y244D01*
X1045Y244D02*
X1125Y244D01*
X798Y243D02*
X876Y243D01*
X1046Y243D02*
X1124Y243D01*
X798Y242D02*
X876Y242D01*
X1046Y242D02*
X1124Y242D01*
X799Y241D02*
X875Y241D01*
X1047Y241D02*
X1123Y241D01*
X799Y240D02*
X875Y240D01*
X1047Y240D02*
X1123Y240D01*
X800Y239D02*
X874Y239D01*
X1048Y239D02*
X1122Y239D01*
X801Y238D02*
X873Y238D01*
X1049Y238D02*
X1121Y238D01*
X801Y237D02*
X873Y237D01*
X1049Y237D02*
X1121Y237D01*
X802Y236D02*
X872Y236D01*
X1050Y236D02*
X1120Y236D01*
X803Y235D02*
X871Y235D01*
X1051Y235D02*
X1119Y235D01*
X804Y234D02*
X870Y234D01*
X1052Y234D02*
X1118Y234D01*
X805Y233D02*
X870Y233D01*
X1053Y233D02*
X1118Y233D01*
X805Y232D02*
X869Y232D01*
X1053Y232D02*
X1117Y232D01*
X806Y231D02*
X868Y231D01*
X1054Y231D02*
X1116Y231D01*
X807Y230D02*
X867Y230D01*
X1055Y230D02*
X1115Y230D01*
X809Y229D02*
X865Y229D01*
X1057Y229D02*
X1113Y229D01*
X810Y228D02*
X864Y228D01*
X1058Y228D02*
X1112Y228D01*
X811Y227D02*
X863Y227D01*
X1059Y227D02*
X1111Y227D01*
X812Y226D02*
X862Y226D01*
X1060Y226D02*
X1110Y226D01*
X814Y225D02*
X860Y225D01*
X1062Y225D02*
X1108Y225D01*
X816Y224D02*
X858Y224D01*
X1064Y224D02*
X1106Y224D01*
X818Y223D02*
X856Y223D01*
X1066Y223D02*
X1104Y223D01*
X820Y222D02*
X854Y222D01*
X1068Y222D02*
X1102Y222D01*
X822Y221D02*
X852Y221D01*
X1070Y221D02*
X1100Y221D01*
X825Y220D02*
X849Y220D01*
X1073Y220D02*
X1097Y220D01*
X829Y219D02*
X845Y219D01*
X1077Y219D02*
X1093Y219D01*
D02*
G04 End of Mask0*
M02*